<svg xmlns="http://www.w3.org/2000/svg" width="960" height="700" viewBox="0 0 960 700" role="img" aria-labelledby="title description">
  <title id="title">Arduino Uno and ESP32-S3 Blink build benchmark</title>
  <desc id="description">Cold build bars with narrower warm build timing overlays for Arduino Uno and ESP32-S3 Blink sketches.</desc>
  <style>
    text { font-family: -apple-system, BlinkMacSystemFont, "Segoe UI", sans-serif; }
    .heading { font-size: 30px; font-weight: 700; fill: #f0f6fc; }
    .meta { font-size: 14px; fill: #8b949e; }
    .legend { font-size: 14px; font-weight: 600; fill: #c9d1d9; }
    .tool { font-size: 18px; font-weight: 700; }
    .value { font-size: 14px; font-weight: 600; fill: #f0f6fc; }
    .speed { font-size: 13px; fill: #8b949e; }
  </style>
  <rect width="960" height="700" fill="#0d1117" />
  <rect width="960" height="112" fill="#161b22" />
  <text x="24" y="43" class="heading">Arduino Uno + ESP32-S3 Blink build times</text>
  <text x="24" y="72" class="meta">Arduino CLI vs PlatformIO vs fbuild | median of 3 trials</text>
  <text x="24" y="95" class="meta">Generated 2026-10-03T09:38:08Z | sha 6acb66a2f54f</text>
  <text x="692" y="95" class="meta">raw compiler floor: 2012.4 ms | fbuild overhead: 901.4 ms | fbuild/PIO cold: 0.568</text>
  <rect x="24" y="128" width="76" height="24" rx="4" fill="#5b1f1c" />
  <rect x="24" y="134" width="34" height="12" rx="3" fill="#f85149" />
  <text x="112" y="146" class="legend">cold (back) + warm (front overlay)</text>
  <text x="24" y="182" class="legend">Arduino Uno | scale: slowest median = 691.5 ms | fbuild/PIO stack matched</text>
  <text x="24" y="428" class="legend">ESP32-S3 | scale: slowest median = 9145.0 ms | fbuild/PIO stack matched</text>
  <g>
    <text x="24" y="215.0" class="tool" fill="#8b949e">Arduino CLI</text>
    <rect x="190.0" y="194.0" width="480.0" height="28" rx="4" fill="#21262d" />
    <rect x="190.0" y="194.0" width="444.0" height="28" rx="4" fill="#3b4046">
      <title>Arduino CLI cold median: 639.652 ms</title>
    </rect>
    <rect x="190.0" y="201.0" width="260.2" height="14" rx="3" fill="#8b949e">
      <title>Arduino CLI warm median: 374.916 ms</title>
    </rect>
    <text x="692" y="207.0" class="value">cold 639.7 ms  |  warm 374.9 ms</text>
    <text x="692" y="228.0" class="speed">1.71x cold / warm</text>
  </g>
  <g>
    <text x="24" y="283.0" class="tool" fill="#79c0ff">PlatformIO</text>
    <rect x="190.0" y="262.0" width="480.0" height="28" rx="4" fill="#21262d" />
    <rect x="190.0" y="262.0" width="480.0" height="28" rx="4" fill="#1f3a7a">
      <title>PlatformIO cold median: 691.520 ms</title>
    </rect>
    <rect x="190.0" y="269.0" width="342.8" height="14" rx="3" fill="#79c0ff">
      <title>PlatformIO warm median: 493.898 ms</title>
    </rect>
    <text x="692" y="275.0" class="value">cold 691.5 ms  |  warm 493.9 ms</text>
    <text x="692" y="296.0" class="speed">1.40x cold / warm</text>
  </g>
  <g>
    <text x="24" y="351.0" class="tool" fill="#f85149">fbuild</text>
    <rect x="190.0" y="330.0" width="480.0" height="28" rx="4" fill="#21262d" />
    <rect x="190.0" y="330.0" width="216.7" height="28" rx="4" fill="#5b1f1c">
      <title>fbuild cold median: 312.159 ms</title>
    </rect>
    <rect x="190.0" y="337.0" width="31.9" height="14" rx="3" fill="#f85149">
      <title>fbuild warm median: 45.935 ms</title>
    </rect>
    <text x="692" y="343.0" class="value">cold 312.2 ms  |  warm 45.9 ms</text>
    <text x="692" y="364.0" class="speed">6.80x cold / warm</text>
  </g>
  <g>
    <text x="24" y="461.0" class="tool" fill="#8b949e">Arduino CLI</text>
    <rect x="190.0" y="440.0" width="480.0" height="28" rx="4" fill="#21262d" />
    <rect x="190.0" y="440.0" width="480.0" height="28" rx="4" fill="#3b4046">
      <title>Arduino CLI cold median: 9144.962 ms</title>
    </rect>
    <rect x="190.0" y="447.0" width="98.3" height="14" rx="3" fill="#8b949e">
      <title>Arduino CLI warm median: 1872.431 ms</title>
    </rect>
    <text x="692" y="453.0" class="value">cold 9145.0 ms  |  warm 1872.4 ms</text>
    <text x="692" y="474.0" class="speed">4.88x cold / warm</text>
  </g>
  <g>
    <text x="24" y="529.0" class="tool" fill="#79c0ff">PlatformIO</text>
    <rect x="190.0" y="508.0" width="480.0" height="28" rx="4" fill="#21262d" />
    <rect x="190.0" y="508.0" width="269.2" height="28" rx="4" fill="#1f3a7a">
      <title>PlatformIO cold median: 5129.646 ms</title>
    </rect>
    <rect x="190.0" y="515.0" width="52.8" height="14" rx="3" fill="#79c0ff">
      <title>PlatformIO warm median: 1006.503 ms</title>
    </rect>
    <text x="692" y="521.0" class="value">cold 5129.6 ms  |  warm 1006.5 ms</text>
    <text x="692" y="542.0" class="speed">5.10x cold / warm</text>
  </g>
  <g>
    <text x="24" y="597.0" class="tool" fill="#f85149">fbuild</text>
    <rect x="190.0" y="576.0" width="480.0" height="28" rx="4" fill="#21262d" />
    <rect x="190.0" y="576.0" width="152.9" height="28" rx="4" fill="#5b1f1c">
      <title>fbuild cold median: 2913.717 ms</title>
    </rect>
    <rect x="190.0" y="583.0" width="3.0" height="14" rx="3" fill="#f85149">
      <title>fbuild warm median: 45.364 ms</title>
    </rect>
    <text x="692" y="589.0" class="value">cold 2913.7 ms  |  warm 45.4 ms</text>
    <text x="692" y="610.0" class="speed">64.23x cold / warm</text>
  </g>
  <line x1="24" y1="672" x2="936" y2="672" stroke="#30363d" stroke-width="2" />
  <text x="24" y="692" class="meta">Machine data: manifest.json | latest.json | history.jsonl</text>
</svg>
