<svg xmlns="http://www.w3.org/2000/svg" width="960" height="700" viewBox="0 0 960 700" role="img" aria-labelledby="title description">
  <title id="title">Arduino Uno and ESP32-S3 Blink build benchmark</title>
  <desc id="description">Cold build bars with narrower warm build timing overlays for Arduino Uno and ESP32-S3 Blink sketches.</desc>
  <style>
    text { font-family: -apple-system, BlinkMacSystemFont, "Segoe UI", sans-serif; }
    .heading { font-size: 30px; font-weight: 700; fill: #f0f6fc; }
    .meta { font-size: 14px; fill: #8b949e; }
    .legend { font-size: 14px; font-weight: 600; fill: #c9d1d9; }
    .tool { font-size: 18px; font-weight: 700; }
    .value { font-size: 14px; font-weight: 600; fill: #f0f6fc; }
    .speed { font-size: 13px; fill: #8b949e; }
  </style>
  <rect width="960" height="700" fill="#0d1117" />
  <rect width="960" height="112" fill="#161b22" />
  <text x="24" y="43" class="heading">Arduino Uno + ESP32-S3 Blink build times</text>
  <text x="24" y="72" class="meta">Arduino CLI vs PlatformIO vs fbuild | median of 3 trials</text>
  <text x="24" y="95" class="meta">Generated 2026-10-10T09:33:53Z | sha 8b2fa6856af4</text>
  <text x="692" y="95" class="meta">raw compiler floor: 182.2 ms | fbuild overhead: 516.9 ms | fbuild/PIO cold: 0.953</text>
  <rect x="24" y="128" width="76" height="24" rx="4" fill="#5b1f1c" />
  <rect x="24" y="134" width="34" height="12" rx="3" fill="#f85149" />
  <text x="112" y="146" class="legend">cold (back) + warm (front overlay)</text>
  <text x="24" y="182" class="legend">Arduino Uno | scale: slowest median = 1057.3 ms | fbuild/PIO stack matched</text>
  <text x="24" y="428" class="legend">ESP32-S3 | scale: slowest median = 10084.4 ms | fbuild/PIO stack matched</text>
  <g>
    <text x="24" y="215.0" class="tool" fill="#8b949e">Arduino CLI</text>
    <rect x="190.0" y="194.0" width="480.0" height="28" rx="4" fill="#21262d" />
    <rect x="190.0" y="194.0" width="480.0" height="28" rx="4" fill="#3b4046">
      <title>Arduino CLI cold median: 1057.268 ms</title>
    </rect>
    <rect x="190.0" y="201.0" width="182.5" height="14" rx="3" fill="#8b949e">
      <title>Arduino CLI warm median: 401.949 ms</title>
    </rect>
    <text x="692" y="207.0" class="value">cold 1057.3 ms  |  warm 401.9 ms</text>
    <text x="692" y="228.0" class="speed">2.63x cold / warm</text>
  </g>
  <g>
    <text x="24" y="283.0" class="tool" fill="#79c0ff">PlatformIO</text>
    <rect x="190.0" y="262.0" width="480.0" height="28" rx="4" fill="#21262d" />
    <rect x="190.0" y="262.0" width="333.0" height="28" rx="4" fill="#1f3a7a">
      <title>PlatformIO cold median: 733.461 ms</title>
    </rect>
    <rect x="190.0" y="269.0" width="232.1" height="14" rx="3" fill="#79c0ff">
      <title>PlatformIO warm median: 511.259 ms</title>
    </rect>
    <text x="692" y="275.0" class="value">cold 733.5 ms  |  warm 511.3 ms</text>
    <text x="692" y="296.0" class="speed">1.44x cold / warm</text>
  </g>
  <g>
    <text x="24" y="351.0" class="tool" fill="#f85149">fbuild</text>
    <rect x="190.0" y="330.0" width="480.0" height="28" rx="4" fill="#21262d" />
    <rect x="190.0" y="330.0" width="317.4" height="28" rx="4" fill="#5b1f1c">
      <title>fbuild cold median: 699.061 ms</title>
    </rect>
    <rect x="190.0" y="337.0" width="21.0" height="14" rx="3" fill="#f85149">
      <title>fbuild warm median: 46.225 ms</title>
    </rect>
    <text x="692" y="343.0" class="value">cold 699.1 ms  |  warm 46.2 ms</text>
    <text x="692" y="364.0" class="speed">15.12x cold / warm</text>
  </g>
  <g>
    <text x="24" y="461.0" class="tool" fill="#8b949e">Arduino CLI</text>
    <rect x="190.0" y="440.0" width="480.0" height="28" rx="4" fill="#21262d" />
    <rect x="190.0" y="440.0" width="480.0" height="28" rx="4" fill="#3b4046">
      <title>Arduino CLI cold median: 10084.443 ms</title>
    </rect>
    <rect x="190.0" y="447.0" width="89.3" height="14" rx="3" fill="#8b949e">
      <title>Arduino CLI warm median: 1876.265 ms</title>
    </rect>
    <text x="692" y="453.0" class="value">cold 10084.4 ms  |  warm 1876.3 ms</text>
    <text x="692" y="474.0" class="speed">5.38x cold / warm</text>
  </g>
  <g>
    <text x="24" y="529.0" class="tool" fill="#79c0ff">PlatformIO</text>
    <rect x="190.0" y="508.0" width="480.0" height="28" rx="4" fill="#21262d" />
    <rect x="190.0" y="508.0" width="251.9" height="28" rx="4" fill="#1f3a7a">
      <title>PlatformIO cold median: 5291.694 ms</title>
    </rect>
    <rect x="190.0" y="515.0" width="49.4" height="14" rx="3" fill="#79c0ff">
      <title>PlatformIO warm median: 1037.309 ms</title>
    </rect>
    <text x="692" y="521.0" class="value">cold 5291.7 ms  |  warm 1037.3 ms</text>
    <text x="692" y="542.0" class="speed">5.10x cold / warm</text>
  </g>
  <g>
    <text x="24" y="597.0" class="tool" fill="#f85149">fbuild</text>
    <rect x="190.0" y="576.0" width="480.0" height="28" rx="4" fill="#21262d" />
    <rect x="190.0" y="576.0" width="150.7" height="28" rx="4" fill="#5b1f1c">
      <title>fbuild cold median: 3166.979 ms</title>
    </rect>
    <rect x="190.0" y="583.0" width="3.0" height="14" rx="3" fill="#f85149">
      <title>fbuild warm median: 45.931 ms</title>
    </rect>
    <text x="692" y="589.0" class="value">cold 3167.0 ms  |  warm 45.9 ms</text>
    <text x="692" y="610.0" class="speed">68.95x cold / warm</text>
  </g>
  <line x1="24" y1="672" x2="936" y2="672" stroke="#30363d" stroke-width="2" />
  <text x="24" y="692" class="meta">Machine data: manifest.json | latest.json | history.jsonl</text>
</svg>
